<?xml version="1.0" standalone="no"?><!DOCTYPE svg PUBLIC "-//W3C//DTD SVG 1.1//EN" "http://www.w3.org/Graphics/SVG/1.1/DTD/svg11.dtd"><svg t="1643353013157" class="icon" viewBox="0 0 1024 1024" version="1.1" xmlns="http://www.w3.org/2000/svg" p-id="5470" xmlns:xlink="http://www.w3.org/1999/xlink" width="200" height="200"><defs><style type="text/css"></style></defs><path d="M512 0a512 512 0 1 0 512 512 512 512 0 0 0-512-512z m378.24 448h-197.76a187.52 187.52 0 0 0-37.12-64l116.48-155.52A384 384 0 0 1 890.24 448zM576 512a64 64 0 1 1-64-64 64 64 0 0 1 64 64z m-64 384a384 384 0 1 1 152.32-736.64L541.44 323.2A147.84 147.84 0 0 0 512 320a192 192 0 1 0 180.48 256h197.76A384 384 0 0 1 512 896z" fill="#FFFFFF" p-id="5471"></path></svg>